<svg xmlns="http://www.w3.org/2000/svg" x="0px" y="0px" width="100" height="100" viewBox="0 0 48 48">
<rect width="8.1" height="4" x="31.3" y="10.7" fill="#f5bc00" transform="rotate(-45.001 35.315 12.655)"></rect><rect width="4" height="8.1" x="22" y="3.9" fill="#f5bc00"></rect><rect width="8.1" height="4" x="36" y="22" fill="#f5bc00"></rect><rect width="4" height="8.1" x="33.3" y="31.2" fill="#f5bc00" transform="rotate(-45.001 35.315 35.283)"></rect><rect width="4" height="8.1" x="22" y="35.9" fill="#f5bc00"></rect><rect width="8.1" height="4" x="8.7" y="33.3" fill="#f5bc00" transform="rotate(-45.001 12.686 35.283)"></rect><rect width="8.1" height="4" x="4" y="22" fill="#f5bc00"></rect><rect width="4" height="8.1" x="10.7" y="8.6" fill="#f5bc00" transform="rotate(-45.001 12.686 12.655)"></rect><circle cx="24" cy="24" r="15" fill="#f5bc00"></circle><path fill="#eb7900" d="M36,26h2.9c0.1-0.6,0.1-1.3,0.1-2c0-0.7-0.1-1.4-0.2-2H36V26z"></path><path fill="#eb7900" d="M33.1,12.1l-2,2l2.8,2.8l2-2C35.1,13.8,34.1,12.9,33.1,12.1z"></path><path fill="#eb7900" d="M26,9.1C25.3,9.1,24.7,9,24,9s-1.3,0.1-2,0.1V12h4V9.1z"></path><path fill="#eb7900" d="M33.9,31L31,33.8l2.1,2.1c1.1-0.8,2-1.8,2.8-2.8L33.9,31z"></path><path fill="#eb7900" d="M22,38.9c0.7,0.1,1.3,0.1,2,0.1s1.3-0.1,2-0.1v-2.9h-4V38.9z"></path><path fill="#eb7900" d="M12.1,33.1c0.8,1.1,1.8,2,2.8,2.8l2.1-2.1L14.1,31L12.1,33.1z"></path><path fill="#eb7900" d="M9.1,26H12v-4H9.2C9.1,22.6,9,23.3,9,24C9,24.7,9.1,25.3,9.1,26z"></path><path fill="#eb7900" d="M12.1,14.9l2,2l2.8-2.8l-2-2C13.9,12.9,12.9,13.8,12.1,14.9z"></path>
</svg>